<?xml version="1.0" encoding="UTF-8" standalone="no"?>
<!-- Created with Inkscape (http://www.inkscape.org/) -->

<svg
   xmlns:dc="http://purl.org/dc/elements/1.1/"
   xmlns:cc="http://creativecommons.org/ns#"
   xmlns:rdf="http://www.w3.org/1999/02/22-rdf-syntax-ns#"
   xmlns:svg="http://www.w3.org/2000/svg"
   xmlns="http://www.w3.org/2000/svg"
   xmlns:sodipodi="http://sodipodi.sourceforge.net/DTD/sodipodi-0.dtd"
   xmlns:inkscape="http://www.inkscape.org/namespaces/inkscape"
   version="1.1"
   id="svg3713"
   xml:space="preserve"
   width="1122.52"
   height="793.70667"
   viewBox="0 0 1122.52 793.70667"
   sodipodi:docname="brisco-systems_LOGO_cmyk.svg"
   inkscape:version="0.92.4 (5da689c313, 2019-01-14)"><metadata
     id="metadata3719"><rdf:RDF><cc:Work
         rdf:about=""><dc:format>image/svg+xml</dc:format><dc:type
           rdf:resource="http://purl.org/dc/dcmitype/StillImage" /><dc:title></dc:title></cc:Work></rdf:RDF></metadata><defs
     id="defs3717"><clipPath
       clipPathUnits="userSpaceOnUse"
       id="clipPath3729"><path
         d="M 0,595.28 H 841.89 V 0 H 0 Z"
         id="path3727"
         inkscape:connector-curvature="0" /></clipPath></defs><sodipodi:namedview
     pagecolor="#ffffff"
     bordercolor="#666666"
     borderopacity="1"
     objecttolerance="10"
     gridtolerance="10"
     guidetolerance="10"
     inkscape:pageopacity="0"
     inkscape:pageshadow="2"
     inkscape:window-width="1920"
     inkscape:window-height="1001"
     id="namedview3715"
     showgrid="false"
     inkscape:zoom="0.980211"
     inkscape:cx="561.26001"
     inkscape:cy="396.85333"
     inkscape:window-x="-9"
     inkscape:window-y="-9"
     inkscape:window-maximized="1"
     inkscape:current-layer="g3721" /><g
     id="g3721"
     inkscape:groupmode="layer"
     inkscape:label="brisco-systems_LOGO_cmyk"
     transform="matrix(1.3333333,0,0,-1.3333333,0,793.70667)"><g
       id="g3723"><g
         id="g3725"
         clip-path="url(#clipPath3729)"><g
           id="g3731"
           transform="translate(239.9082,313.6914)"><path
             d="m 0,0 h 5.493 c 3.426,0 5.139,1.713 5.139,4.194 0,3.603 -2.658,4.37 -5.611,4.37 H 0 Z m -0.118,-16.716 h 5.847 c 3.19,0 5.021,1.24 5.021,4.371 0,2.953 -2.185,4.548 -5.316,4.548 h -5.552 z m -9.983,33.077 H 6.557 c 7.914,0 14.353,-2.716 14.353,-10.868 0,-4.312 -2.422,-8.033 -6.616,-9.273 v -0.118 c 4.666,-1.3 7.088,-4.666 7.088,-9.51 0,-7.679 -5.316,-11.105 -13.408,-11.105 h -18.429 z"
             style="fill:#4f4c4d;fill-opacity:1;fill-rule:nonzero;stroke:none"
             id="path3733"
             inkscape:connector-curvature="0" /></g><g
           id="g3735"
           transform="translate(279.4277,312.5693)"><path
             d="m 0,0 h 4.784 c 2.54,0 6.084,0.708 6.084,4.843 0,3.367 -2.067,4.844 -6.32,4.844 H 0.236 Z m 0.177,-23.391 h -10.75 l 0.354,40.874 H 5.848 C 14.353,17.483 21.5,15.239 21.5,5.965 21.678,0.118 17.543,-4.371 11.695,-4.607 v -0.119 c 2.363,-0.709 4.135,-3.248 5.612,-5.906 l 7.147,-12.759 H 12.463 L 6.615,-12.05 c -1.24,2.481 -2.244,4.253 -4.607,4.253 H 0.414 Z"
             style="fill:#4f4c4d;fill-opacity:1;fill-rule:nonzero;stroke:none"
             id="path3737"
             inkscape:connector-curvature="0" /></g><g
           id="g3739"
           transform="translate(309.4385,330.0527)"><path
             d="M 0,0 H 10.632 L 10.277,-40.874 H -0.354 Z"
             style="fill:#4f4c4d;fill-opacity:1;fill-rule:nonzero;stroke:none"
             id="path3741"
             inkscape:connector-curvature="0" /></g><g
           id="g3743"
           transform="translate(330.2891,298.2749)"><path
             d="m 0,0 c 2.481,-0.768 6.557,-1.772 9.451,-1.772 3.308,0 6.793,0.65 6.793,4.489 0,3.781 -4.785,4.135 -9.569,5.553 -4.784,1.417 -9.628,3.898 -9.628,11.813 0,8.801 8.86,12.876 16.598,12.876 4.548,0 8.8,-1.063 12.995,-2.658 l -3.013,-7.56 c -2.717,1.004 -6.439,1.713 -8.624,1.713 -5.079,0 -6.97,-1.831 -6.97,-4.43 0,-1.654 1.182,-3.072 5.907,-4.076 10.455,-2.363 13.29,-6.556 13.29,-12.286 0,-10.1 -8.092,-13.94 -17.188,-13.94 -4.253,0 -8.683,0.945 -12.699,2.304 z"
             style="fill:#4f4c4d;fill-opacity:1;fill-rule:nonzero;stroke:none"
             id="path3745"
             inkscape:connector-curvature="0" /></g><g
           id="g3747"
           transform="translate(396.0352,320.6021)"><path
             d="m 0,0 c -2.363,1.418 -5.966,2.126 -8.506,2.126 -7.738,0 -13.526,-5.138 -13.526,-12.994 0,-7.383 4.607,-13.231 12.344,-13.231 4.195,0 5.908,1.063 9.156,2.126 l 3.131,-7.619 c -2.895,-1.595 -7.62,-3.013 -13.527,-3.013 -13.762,0 -22.091,8.742 -22.091,21.973 0,12.758 8.565,21.264 23.45,21.264 5.552,0 10.1,-1.24 12.817,-2.953 z"
             style="fill:#4f4c4d;fill-opacity:1;fill-rule:nonzero;stroke:none"
             id="path3749"
             inkscape:connector-curvature="0" /></g><g
           id="g3751"
           transform="translate(424.4492,296.5029)"><path
             d="m 0,0 c 6.144,0 11.105,4.135 11.105,13.113 0,8.978 -4.961,13.113 -11.105,13.113 -6.083,0 -11.045,-4.135 -11.045,-13.113 C -11.045,4.135 -6.083,0 0,0 m 0.06,34.731 c 13.88,0 22.032,-9.746 22.032,-21.618 0,-11.873 -8.152,-21.619 -22.032,-21.619 -13.94,0 -22.091,9.746 -22.091,21.619 0,11.872 8.151,21.618 22.091,21.618"
             style="fill:#4f4c4d;fill-opacity:1;fill-rule:nonzero;stroke:none"
             id="path3753"
             inkscape:connector-curvature="0" /></g><g
           id="g3755"
           transform="translate(462.375,298.2749)"><path
             d="m 0,0 c 2.481,-0.768 6.557,-1.772 9.451,-1.772 3.308,0 6.793,0.65 6.793,4.489 0,3.781 -4.785,4.135 -9.569,5.553 -4.784,1.417 -9.628,3.898 -9.628,11.813 0,8.801 8.86,12.876 16.598,12.876 4.548,0 8.8,-1.063 12.995,-2.658 l -3.013,-7.56 c -2.717,1.004 -6.439,1.713 -8.624,1.713 -5.079,0 -6.97,-1.831 -6.97,-4.43 0,-1.654 1.182,-3.072 5.907,-4.076 10.455,-2.363 13.29,-6.556 13.29,-12.286 0,-10.1 -8.092,-13.94 -17.188,-13.94 -4.253,0 -8.683,0.945 -12.699,2.304 z"
             style="fill:#4f4c4d;fill-opacity:1;fill-rule:nonzero;stroke:none"
             id="path3757"
             inkscape:connector-curvature="0" /></g><g
           id="g3759"
           transform="translate(493.0937,318.9482)"><path
             d="m 0,0 h 10.81 l 4.784,-18.429 h 0.118 L 21.205,0 H 31.778 L 19.315,-34.908 c -2.599,-6.971 -4.843,-9.746 -12.817,-9.746 -1.831,0 -3.603,0 -5.316,0.177 v 7.147 c 0.827,-0.178 1.654,-0.236 2.48,-0.236 1.595,0 3.249,0.236 4.313,1.535 0.767,0.945 1.889,3.072 2.067,4.194 z"
             style="fill:#4f4c4d;fill-opacity:1;fill-rule:nonzero;stroke:none"
             id="path3761"
             inkscape:connector-curvature="0" /></g><g
           id="g3763"
           transform="translate(529.542,296.8574)"><path
             d="m 0,0 c 2.126,-0.827 5.848,-1.653 8.388,-1.653 1.476,0 3.425,0.884 3.425,2.362 0,1.299 -0.532,1.772 -5.729,3.249 -5.021,1.417 -8.093,3.78 -8.093,9.332 0,7.147 6.735,9.864 12.995,9.864 5.08,0 9.392,-1.181 10.574,-1.949 l -1.891,-6.379 c -2.008,0.531 -4.371,1.24 -7.265,1.24 -1.594,0 -3.78,-0.649 -3.78,-2.362 0,-1.241 0.531,-2.009 3.78,-2.659 5.788,-1.181 10.041,-3.071 10.041,-9.687 0,-7.678 -6.674,-10.099 -13.881,-10.099 -4.429,0 -9.45,1.24 -10.868,1.949 z"
             style="fill:#4f4c4d;fill-opacity:1;fill-rule:nonzero;stroke:none"
             id="path3765"
             inkscape:connector-curvature="0" /></g><g
           id="g3767"
           transform="translate(554.0566,318.9482)"><path
             d="M 0,0 H 4.371 L 4.607,10.101 H 14.53 L 14.294,0 h 8.446 l -0.177,-7.442 h -8.446 c 0,-4.135 -0.296,-8.506 -0.296,-11.046 0,-2.599 0.651,-3.839 2.954,-3.839 1.417,0 2.599,0.709 3.78,1.417 l 2.245,-6.969 c -3.013,-1.832 -6.675,-2.953 -10.159,-2.953 -8.329,0 -8.743,5.256 -8.743,12.108 0,3.662 0.295,7.324 0.295,11.282 h -4.429 z"
             style="fill:#4f4c4d;fill-opacity:1;fill-rule:nonzero;stroke:none"
             id="path3769"
             inkscape:connector-curvature="0" /></g><g
           id="g3771"
           transform="translate(601.6084,307.7847)"><path
             d="m 0,0 c 0,3.072 -1.477,5.848 -4.902,5.848 -3.249,0 -5.73,-2.894 -6.38,-5.848 z m 7.561,-15.239 c -3.486,-2.953 -8.801,-4.429 -13.527,-4.429 -10.809,0 -15.712,7.677 -15.712,15.297 0,8.978 6.734,16.598 16.007,16.598 11.341,0 14.885,-8.033 14.885,-18.252 H -11.4 c 0,-2.303 1.476,-6.202 7.147,-6.202 3.603,0 5.611,1.063 8.388,2.954 z"
             style="fill:#4f4c4d;fill-opacity:1;fill-rule:nonzero;stroke:none"
             id="path3773"
             inkscape:connector-curvature="0" /></g><g
           id="g3775"
           transform="translate(616.5557,289.1787)"><path
             d="m 0,0 0.236,29.77 h 10.278 v -3.544 c 2.658,2.658 6.025,4.607 9.746,4.607 3.662,0 6.261,-1.241 8.446,-4.607 3.131,2.658 7.266,4.607 11.106,4.607 6.969,0 9.686,-4.903 9.686,-11.164 C 49.498,13.113 49.438,6.557 49.38,0 H 39.103 c 0.058,5.729 0.118,11.518 0.118,17.248 0,2.481 -0.769,4.725 -3.722,4.725 -1.831,0 -4.193,-1.418 -5.434,-2.717 L 29.829,0 H 19.551 c 0.059,5.729 0.118,11.518 0.118,17.248 0,2.481 -0.768,4.725 -3.721,4.725 -1.831,0 -4.194,-1.418 -5.434,-2.717 L 10.277,0 Z"
             style="fill:#4f4c4d;fill-opacity:1;fill-rule:nonzero;stroke:none"
             id="path3777"
             inkscape:connector-curvature="0" /></g><g
           id="g3779"
           transform="translate(673.8555,296.8574)"><path
             d="m 0,0 c 2.126,-0.827 5.848,-1.653 8.388,-1.653 1.476,0 3.425,0.884 3.425,2.362 0,1.299 -0.532,1.772 -5.729,3.249 -5.021,1.417 -8.093,3.78 -8.093,9.332 0,7.147 6.735,9.864 12.995,9.864 5.08,0 9.392,-1.181 10.574,-1.949 l -1.891,-6.379 c -2.008,0.531 -4.371,1.24 -7.265,1.24 -1.594,0 -3.78,-0.649 -3.78,-2.362 0,-1.241 0.531,-2.009 3.78,-2.659 5.788,-1.181 10.041,-3.071 10.041,-9.687 0,-7.678 -6.674,-10.099 -13.881,-10.099 -4.429,0 -9.45,1.24 -10.868,1.949 z"
             style="fill:#4f4c4d;fill-opacity:1;fill-rule:nonzero;stroke:none"
             id="path3781"
             inkscape:connector-curvature="0" /></g><g
           id="g3783"
           transform="translate(229.3071,279.2041)"><path
             d="M 0,0 H 8.491 V -1.652 H 1.974 L 1.928,-7.045 H 8.285 V -8.697 H 1.951 l -0.092,-7.184 h -1.997 z"
             style="fill:#4f4c4d;fill-opacity:1;fill-rule:nonzero;stroke:none"
             id="path3785"
             inkscape:connector-curvature="0" /></g><g
           id="g3787"
           transform="translate(240.6445,263.3232)"><path
             d="M 0,0 0.138,15.881 H 2.111 L 1.974,1.652 h 6.77 V 0 Z"
             style="fill:#4f4c4d;fill-opacity:1;fill-rule:nonzero;stroke:none"
             id="path3789"
             inkscape:connector-curvature="0" /></g><g
           id="g3791"
           transform="translate(264.8335,279.2041)"><path
             d="m 0,0 -0.069,-9.891 c -0.069,-5.095 -3.327,-6.311 -6.426,-6.311 -3.442,0 -6.173,1.538 -6.173,6.356 0,1.263 0.023,2.732 0.046,4.338 L -12.576,0 h 1.973 l -0.045,-5.852 c -0.023,-1.492 -0.046,-3.006 -0.046,-4.475 0,-2.892 1.537,-4.223 4.337,-4.223 2.341,0 4.292,1.148 4.315,4.774 L -1.974,0 Z"
             style="fill:#4f4c4d;fill-opacity:1;fill-rule:nonzero;stroke:none"
             id="path3793"
             inkscape:connector-curvature="0" /></g><g
           id="g3795"
           transform="translate(269.0332,279.2041)"><path
             d="M 0,0 H 1.974 L 1.836,-15.881 h -1.974 z"
             style="fill:#4f4c4d;fill-opacity:1;fill-rule:nonzero;stroke:none"
             id="path3797"
             inkscape:connector-curvature="0" /></g><g
           id="g3799"
           transform="translate(277.0425,264.8379)"><path
             d="m 0,0 h 2.111 c 4.544,0 7.436,2.157 7.436,6.518 0,3.993 -2.731,6.334 -6.977,6.334 H 0.138 Z m -1.836,14.366 h 4.774 c 6.104,0 8.583,-3.855 8.583,-7.734 0,-5.369 -3.971,-8.147 -9.111,-8.147 h -4.384 z"
             style="fill:#4f4c4d;fill-opacity:1;fill-rule:nonzero;stroke:none"
             id="path3801"
             inkscape:connector-curvature="0" /></g><g
           id="g3803"
           transform="translate(300.0381,279.2041)"><path
             d="M 0,0 H 2.042 L 6.839,-13.402 12.002,0 h 2.135 l 2.524,-15.881 -1.928,-0.321 -2.019,13.586 H 12.668 L 7.734,-15.881 H 5.852 L 1.239,-2.616 H 1.193 l -2.18,-13.586 -1.905,0.321 z"
             style="fill:#4f4c4d;fill-opacity:1;fill-rule:nonzero;stroke:none"
             id="path3805"
             inkscape:connector-curvature="0" /></g><g
           id="g3807"
           transform="translate(325.5352,277.4141)"><path
             d="m 0,0 h -0.045 l -2.662,-7.16 h 5.209 z m -0.895,1.79 h 1.882 l 6.312,-15.56 -1.975,-0.642 -2.156,5.599 h -6.564 l -2.318,-5.599 -1.836,0.573 z"
             style="fill:#4f4c4d;fill-opacity:1;fill-rule:nonzero;stroke:none"
             id="path3809"
             inkscape:connector-curvature="0" /></g><g
           id="g3811"
           transform="translate(335.1279,278.8135)"><path
             d="m 0,0 1.652,0.712 8.79,-12.874 h 0.045 l 0.092,12.553 h 1.997 l -0.138,-15.56 -1.72,-0.643 -8.721,12.99 H 1.95 L 1.858,-15.49 h -1.996 z"
             style="fill:#4f4c4d;fill-opacity:1;fill-rule:nonzero;stroke:none"
             id="path3813"
             inkscape:connector-curvature="0" /></g><g
           id="g3815"
           transform="translate(357.4121,277.4141)"><path
             d="m 0,0 h -0.045 l -2.662,-7.16 h 5.209 z m -0.895,1.79 h 1.882 l 6.312,-15.56 -1.975,-0.642 -2.156,5.599 h -6.564 l -2.318,-5.599 -1.836,0.573 z"
             style="fill:#4f4c4d;fill-opacity:1;fill-rule:nonzero;stroke:none"
             id="path3817"
             inkscape:connector-curvature="0" /></g><g
           id="g3819"
           transform="translate(379.7646,271.4697)"><path
             d="m 0,0 -0.092,-7.297 c -1.813,-0.849 -3.718,-1.171 -5.163,-1.171 -4.705,0 -8.423,3.075 -8.423,8.262 0,4.865 3.718,8.262 8.423,8.262 1.675,0 3.419,-0.39 4.91,-1.124 L -1.102,5.371 c -1.032,0.596 -2.547,1.032 -4.153,1.032 -3.695,0 -6.311,-2.937 -6.311,-6.609 0,-3.672 2.616,-6.609 6.311,-6.609 1.102,0 2.317,0.275 3.19,0.665 L -1.974,0 Z"
             style="fill:#4f4c4d;fill-opacity:1;fill-rule:nonzero;stroke:none"
             id="path3821"
             inkscape:connector-curvature="0" /></g><g
           id="g3823"
           transform="translate(383.5752,279.2041)"><path
             d="M 0,0 H 8.17 V -1.652 H 1.95 L 1.905,-7.045 H 7.964 V -8.697 H 1.928 l -0.046,-5.532 h 6.38 v -1.652 h -8.4 z"
             style="fill:#4f4c4d;fill-opacity:1;fill-rule:nonzero;stroke:none"
             id="path3825"
             inkscape:connector-curvature="0" /></g><g
           id="g3827"
           transform="translate(396.9316,279.2041)"><path
             d="M 0,0 H 2.043 L 6.839,-13.402 12.002,0 h 2.135 l 2.524,-15.881 -1.928,-0.321 -2.019,13.586 H 12.668 L 7.734,-15.881 H 5.852 L 1.239,-2.616 H 1.193 l -2.179,-13.586 -1.906,0.321 z"
             style="fill:#4f4c4d;fill-opacity:1;fill-rule:nonzero;stroke:none"
             id="path3829"
             inkscape:connector-curvature="0" /></g><g
           id="g3831"
           transform="translate(416.7139,279.2041)"><path
             d="M 0,0 H 8.17 V -1.652 H 1.95 L 1.905,-7.045 H 7.964 V -8.697 H 1.928 l -0.046,-5.532 h 6.38 v -1.652 h -8.4 z"
             style="fill:#4f4c4d;fill-opacity:1;fill-rule:nonzero;stroke:none"
             id="path3833"
             inkscape:connector-curvature="0" /></g><g
           id="g3835"
           transform="translate(428.1895,278.8135)"><path
             d="m 0,0 1.652,0.712 8.789,-12.874 h 0.047 L 10.58,0.391 h 1.996 l -0.138,-15.56 -1.721,-0.643 -8.721,12.99 H 1.951 L 1.859,-15.49 h -1.997 z"
             style="fill:#4f4c4d;fill-opacity:1;fill-rule:nonzero;stroke:none"
             id="path3837"
             inkscape:connector-curvature="0" /></g><g
           id="g3839"
           transform="translate(443.0605,279.2041)"><path
             d="M 0,0 H 12.025 V -1.652 H 7 L 6.861,-15.881 H 4.889 L 5.025,-1.652 H 0 Z"
             style="fill:#4f4c4d;fill-opacity:1;fill-rule:nonzero;stroke:none"
             id="path3841"
             inkscape:connector-curvature="0" /></g><g
           id="g3843"
           transform="translate(128.2573,299.8789)"><path
             d="m 0,0 c 6.215,5.764 13.744,11.061 22.335,15.322 4.189,2.235 8.782,4.152 13.507,6.014 2.376,0.822 4.793,1.662 7.247,2.515 2.477,0.692 4.991,1.393 7.54,2.108 7.248,1.822 14.843,3.193 22.679,4.027 H -2.579 c -4.169,0 -7.55,-3.38 -7.55,-7.549 V -11.586 C -7.373,-7.606 -3.969,-3.672 0,0"
             style="fill:#4f4c4d;fill-opacity:1;fill-rule:nonzero;stroke:none"
             id="path3845"
             inkscape:connector-curvature="0" /></g><g
           id="g3847"
           transform="translate(214.542,297.9434)"><path
             d="m 0,0 c -4.738,0.01 -9.322,-0.229 -13.661,-0.702 -4.338,-0.47 -8.435,-1.136 -12.191,-2.007 -3.757,-0.86 -7.188,-1.838 -10.202,-2.894 -3.004,-1.09 -5.631,-2.108 -7.745,-3.166 -0.531,-0.256 -1.033,-0.501 -1.506,-0.729 -0.468,-0.247 -0.906,-0.478 -1.314,-0.692 -0.41,-0.217 -0.789,-0.416 -1.137,-0.599 -0.347,-0.192 -0.657,-0.391 -0.937,-0.555 -1.122,-0.658 -1.72,-1.01 -1.72,-1.01 0,0 0.538,0.514 1.55,1.475 0.255,0.234 0.534,0.51 0.852,0.789 0.322,0.272 0.675,0.569 1.056,0.892 0.382,0.321 0.794,0.668 1.232,1.037 0.45,0.337 0.928,0.694 1.432,1.069 2.014,1.534 4.537,3.189 7.501,4.866 2.967,1.658 6.389,3.251 10.179,4.712 3.79,1.461 7.96,2.697 12.407,3.668 4.449,0.965 9.175,1.66 14.082,1.984 0.62,0.028 1.23,0.067 1.848,0.102 v 7.082 c -4.587,-0.02 -9.156,-0.242 -13.661,-0.709 -5.817,-0.625 -11.537,-1.425 -17.026,-2.67 -5.483,-1.265 -10.76,-2.725 -15.697,-4.521 -4.927,-1.829 -9.533,-3.859 -13.695,-6.088 -4.148,-2.276 -7.865,-4.689 -11.04,-7.158 -3.171,-2.483 -5.817,-4.969 -7.866,-7.268 -2.045,-2.306 -3.535,-4.342 -4.498,-5.8 -0.484,-0.729 -0.827,-1.332 -1.073,-1.716 -0.241,-0.392 -0.365,-0.594 -0.365,-0.594 0,0 0.107,0.222 0.315,0.651 0.214,0.422 0.5,1.082 0.934,1.879 0.87,1.601 2.198,3.914 4.142,6.504 1.937,2.596 4.464,5.504 7.585,8.354 3.11,2.87 6.784,5.749 10.944,8.394 4.16,2.641 8.785,5.115 13.777,7.242 4.991,2.127 10.332,3.998 15.918,5.437 2.795,0.709 5.643,1.373 8.538,1.911 2.892,0.58 5.833,1.005 8.801,1.346 4.604,0.531 9.281,0.816 13.967,0.892 v 2.965 c 0,0.817 -0.134,1.603 -0.375,2.341 -1.481,-0.011 -2.958,-0.041 -4.428,-0.097 -11.136,-0.343 -21.894,-1.588 -31.996,-3.787 -2.517,-0.617 -4.999,-1.226 -7.445,-1.825 -2.426,-0.745 -4.814,-1.479 -7.163,-2.2 -4.658,-1.608 -9.11,-3.229 -13.403,-5.29 -0.536,-0.243 -1.07,-0.486 -1.601,-0.726 l -0.793,-0.358 -0.394,-0.179 -0.355,-0.178 c -1.027,-0.521 -2.044,-1.033 -3.039,-1.582 -1.996,-1.067 -3.92,-2.203 -5.785,-3.353 -3.724,-2.307 -7.163,-4.803 -10.275,-7.44 -4.386,-3.727 -8.124,-7.736 -11.087,-11.818 v -14.465 c 0,-4.168 3.38,-7.549 7.549,-7.549 h 83.041 c 4.169,0 7.549,3.381 7.549,7.549 V -0.033 C 1.151,-0.021 0.571,-0.01 0,0"
             style="fill:#abd91a;fill-opacity:1;fill-rule:nonzero;stroke:none"
             id="path3849"
             inkscape:connector-curvature="0" /></g></g></g></g></svg>